<svg version="1.2" xmlns="http://www.w3.org/2000/svg" viewBox="0 0 100 41" width="100" height="41">
	<title>Bing-svg</title>
	<defs>
		<linearGradient id="g1" x2="1" gradientUnits="userSpaceOnUse" gradientTransform="matrix(11.685,20.239,-8.505,4.91,15.143,12.213)">
			<stop offset="0" stop-color="#32c0fb"/>
			<stop offset=".5" stop-color="#0cd4e3"/>
			<stop offset="1" stop-color="#06dada"/>
		</linearGradient>
		<linearGradient id="g2" x2="1" gradientUnits="userSpaceOnUse" gradientTransform="matrix(20.14,-12.102,7.669,12.763,3.274,38.464)">
			<stop offset="0" stop-color="#35c7fc"/>
			<stop offset="1" stop-color="#1444d6"/>
		</linearGradient>
		<linearGradient id="g3" x2="1" gradientUnits="userSpaceOnUse" gradientTransform="matrix(0,32.825,-9.072,0,4.798,2.396)">
			<stop offset="0" stop-color="#26b3f5"/>
			<stop offset="1" stop-color="#1444d6"/>
		</linearGradient>
	</defs>
	<style>
		.s0 { fill: url(#g1) } 
		.s1 { fill: url(#g2) } 
		.s2 { fill: url(#g3) } 
		.s3 { fill: #737373 } 
	</style>
	<path id="path324" class="s0" d="m27.3 26.4q0 0.6-0.1 1.2c-0.2 2.4-1.2 4.6-2.8 6.2q0.3-0.3 0.5-0.7 0.2-0.3 0.3-0.6 0.1-0.1 0.1-0.2 0.1-0.1 0.1-0.2 0-0.1 0.1-0.2 0-0.1 0-0.2 0 0 0 0 0.1-0.1 0.1-0.2 0-0.1 0-0.3 0-0.1 0-0.2 0.1-0.2 0.1-0.5c0-0.9-0.3-1.7-0.7-2.5q-0.2-0.2-0.4-0.5-0.2-0.2-0.4-0.5-0.7-0.6-1.5-1-0.3-0.1-0.7-0.2 0 0 0 0h-0.1l-1.3-0.5-3.3-1.1q0 0 0 0l-0.2-0.1c-0.7-0.3-1.2-0.8-1.5-1.4l-1.3-3.1-1.3-3.5-0.3-0.7-0.1-0.1q-0.1-0.3-0.1-0.6 0-0.1 0-0.2c0.1-0.8 0.8-1.4 1.6-1.4q0.3 0 0.6 0.1l6.1 3.2 1.2 0.6q1 0.6 1.8 1.4c2 1.8 3.3 4.4 3.5 7.3q0 0.3 0 0.7z"/>
	<path id="path330" class="s1" d="m25.7 30.5q0 0.5-0.1 1 0 0.1-0.1 0.2 0 0.2-0.1 0.4 0 0.1-0.1 0.2 0 0.1-0.1 0.2-0.1 0.3-0.3 0.6-0.2 0.4-0.5 0.7c-0.9 1-3.9 2.8-5.1 3.5l-2.4 1.6c-1.9 1.1-3.6 1.9-5.8 2q-0.1 0-0.3 0-0.2 0-0.4 0c-3.7-0.2-6.9-2.2-8.7-5.1-0.9-1.4-1.4-2.9-1.6-4.6 0.4 2.3 2.3 4 4.7 4 0.8 0 1.6-0.2 2.3-0.6q0 0 0 0l0.2-0.1 1-0.6 1.3-0.8 0.2-0.1 11.2-6.7 0.9-0.5h0.1q0 0 0 0 0.4 0.1 0.7 0.2 0.8 0.4 1.5 1 0.2 0.3 0.4 0.5 0.2 0.3 0.4 0.5c0.4 0.8 0.7 1.6 0.7 2.5z"/>
	<path id="path332" class="s2" d="m9.6 8.1v25l-1.3 0.8-1 0.6-0.2 0.1q0 0 0 0c-0.7 0.4-1.5 0.6-2.3 0.6-2.4 0-4.3-1.7-4.7-4q-0.1-0.1-0.1-0.3 0-0.3 0-0.6v-28.2c0-0.9 0.7-1.6 1.6-1.6q0.5 0 0.9 0.3l4.9 3.2q0.1 0 0.1 0.1c1.3 0.8 2.1 2.3 2.1 4z"/>
	<path id="path6593" fill-rule="evenodd" class="s3" d="m38.9 32.5v-23.6h7.4c3 0 4.4 0.5 5.4 1.3 1.3 1 2 2.4 2 4 0 1.3-0.4 2.6-1.1 3.6-0.8 1-1.8 1.5-3.2 2 1.6 0.1 3 0.8 3.9 1.8q1.5 1.5 1.5 3.9c0 2.1-0.8 4-2.4 5.2-1.6 1.3-3.6 1.8-6 1.8zm3.9-20.5v6.7h2.5c1.4 0 2.3-0.4 3.1-1 0.7-0.6 1-1.5 1-2.6 0-2.6-2.7-3.1-3.8-3.1zm0 9.9v7.3h3.3c1.5 0 2.5-0.3 3.3-1 0.8-0.7 1.2-1.4 1.2-2.6 0-2.5-1.8-3.7-5-3.7z"/>
	<path id="path6595" class="s3" d="m59.7 8.2q-0.5 0-0.9 0.2-0.4 0.1-0.8 0.5-0.3 0.3-0.5 0.7-0.2 0.5-0.2 0.9 0 0.5 0.2 0.9 0.2 0.5 0.5 0.8 0.4 0.3 0.8 0.5 0.4 0.2 0.9 0.2 0.5 0 0.9-0.2 0.5-0.2 0.8-0.5 0.3-0.3 0.5-0.8 0.2-0.4 0.2-0.9 0-0.4-0.2-0.9-0.2-0.4-0.5-0.7-0.3-0.4-0.8-0.5-0.4-0.2-0.9-0.2zm1.9 7.4v16.9h-3.8v-16.9z"/>
	<path id="path6597" class="s3" d="m80.5 32.5h-3.8v-9.5c0-3.2-1.1-4.6-3.4-4.6-1.1 0-1.9 0.3-2.7 1.1-0.7 0.9-1.2 2-1.2 3.4v9.6h-3.9v-16.9h3.9v2.4c1.9-2.5 3.1-2.8 5.4-2.8 2 0 3.5 0.6 4.4 1.8 1 1.2 1.3 2.9 1.3 5.2z"/>
	<path id="path6599" fill-rule="evenodd" class="s3" d="m99.7 30.7q0 9-9.3 9c-2.1 0-4-0.2-5.7-0.9v-3.9c1.3 0.9 3 1.8 5.3 1.8 3.9 0 5.9-2.4 5.9-5.8v-0.8c-2.3 2.6-4.4 2.6-5.7 2.6-2.1 0-3.8-0.8-5-2.3-1.3-1.4-1.8-3.5-1.8-6.1 0-2.8 0.8-5.1 2.2-6.7 1.3-1.7 3.2-2.4 5.5-2.4 2.2 0 3.9 0.7 4.8 2.2v-1.8h3.8zm-3.7-6.2v-1.9c0-1.1-0.4-2.1-1.2-2.9-0.8-0.9-1.6-1.3-2.8-1.3-1.4 0-2.6 0.5-3.5 1.5-0.8 1.1-1.1 2.3-1.1 4.2 0 1.6 0.3 3.1 1 4 0.8 1 1.9 1.5 3.1 1.5 1.8 0 2.6-0.7 3.4-1.6 0.8-0.9 1.1-2.1 1.1-3.5z"/>
</svg>