<svg version="1.2" xmlns="http://www.w3.org/2000/svg" viewBox="0 0 272 112" width="272" height="112">
	<title>Bing-svg</title>
	<defs>
		<linearGradient id="g1" x2="1" gradientUnits="userSpaceOnUse" gradientTransform="matrix(31.921,55.288,-23.165,13.375,41.119,33.363)">
			<stop offset="0" stop-color="#32c0fb"/>
			<stop offset=".5" stop-color="#0cd4e3"/>
			<stop offset="1" stop-color="#06dada"/>
		</linearGradient>
		<linearGradient id="g2" x2="1" gradientUnits="userSpaceOnUse" gradientTransform="matrix(55.016,-33.059,20.975,34.906,8.788,105.072)">
			<stop offset="0" stop-color="#35c7fc"/>
			<stop offset="1" stop-color="#1444d6"/>
		</linearGradient>
		<linearGradient id="g3" x2="1" gradientUnits="userSpaceOnUse" gradientTransform="matrix(0,89.668,-24.676,0,13.05,6.546)">
			<stop offset="0" stop-color="#26b3f5"/>
			<stop offset="1" stop-color="#1444d6"/>
		</linearGradient>
	</defs>
	<style>
		.s0 { fill: url(#g1) } 
		.s1 { fill: url(#g2) } 
		.s2 { fill: url(#g3) } 
		.s3 { fill: #737373 } 
	</style>
	<path id="path324" class="s0" d="m74.3 72.2q0 1.6-0.2 3.2c-0.7 6.5-3.5 12.5-7.7 17q0.8-0.9 1.4-1.9 0.5-0.8 0.9-1.6 0.1-0.3 0.2-0.6 0.1-0.3 0.2-0.6 0.1-0.2 0.2-0.5 0.1-0.3 0.1-0.6 0 0 0.1-0.1 0-0.3 0.1-0.5 0-0.3 0.1-0.6v-0.1q0-0.2 0-0.5 0.1-0.7 0.1-1.4c0-2.5-0.7-4.8-1.9-6.8q-0.4-0.7-0.9-1.4-0.6-0.7-1.2-1.4c-1.2-1.1-2.5-2-4-2.7q-0.9-0.4-1.9-0.6-0.1-0.1-0.1-0.1h-0.2l-3.4-1.2-9-3.2q-0.1 0-0.1 0l-0.6-0.2c-1.8-0.7-3.3-2-4.2-3.7l-3.3-8.5-3.7-9.7-0.7-1.8-0.2-0.4q-0.3-0.8-0.3-1.7-0.1-0.2 0-0.4c0.2-2.1 2-3.8 4.1-3.8q0.9 0 1.7 0.3l16.7 8.7 3.3 1.7q2.6 1.6 4.8 3.7c5.4 5 9 12 9.5 19.9q0.1 1 0.1 2.1z"/>
	<path id="path330" class="s1" d="m69.8 83.4q0 1.3-0.2 2.6-0.1 0.3-0.2 0.6-0.1 0.6-0.3 1.1-0.1 0.3-0.2 0.6-0.1 0.3-0.2 0.6-0.4 0.8-0.9 1.6-0.6 1-1.4 1.9c-2.5 2.8-10.7 7.6-13.8 9.6l-6.7 4.2c-5 3.1-9.7 5.3-15.6 5.4q-0.4 0-0.8 0-0.6 0-1.2 0c-10-0.4-18.7-5.8-23.7-13.9-2.4-3.6-3.9-7.8-4.4-12.4 1.1 6.2 6.4 10.9 12.8 10.9 2.3 0 4.4-0.6 6.3-1.6q0 0 0 0l0.7-0.4 2.7-1.6 3.4-2.1v-0.1l0.4-0.2 30.7-18.4 2.4-1.4h0.2q0 0 0 0 1.1 0.3 2 0.7c1.5 0.7 2.8 1.6 3.9 2.7q0.7 0.7 1.3 1.4 0.5 0.6 0.9 1.4c1.2 2 1.9 4.3 1.9 6.8z"/>
	<path id="path332" class="s2" d="m26.1 22.1v68.4l-3.4 2.1-2.7 1.6-0.7 0.4q0 0 0 0c-1.9 1-4 1.6-6.3 1.6-6.4 0-11.7-4.7-12.8-10.9q-0.1-0.4-0.1-0.8-0.1-0.8-0.1-1.6v-77.1c0-2.4 2-4.4 4.4-4.4 0.9 0 1.7 0.3 2.4 0.7l13.4 8.9q0.1 0 0.2 0.1c3.4 2.4 5.7 6.4 5.7 11z"/>
	<path id="path6593" fill-rule="evenodd" class="s3" d="m105.7 88.9v-64.6h20.3c8 0 12 1.5 14.6 3.5 3.7 2.7 5.5 6.5 5.5 10.9 0 3.7-1 7.2-3.1 9.9-2 2.7-5 4.2-8.6 5.4 4.4 0.5 8 2.2 10.6 5q4 4.1 4 10.8c0 5.5-2.1 10.7-6.5 14.1-4.3 3.5-9.7 5-16.3 5zm10.6-56v18.1h6.8c3.7 0 6.3-0.9 8.3-2.6 2.1-1.8 3-4 3-7.2 0-7.1-7.6-8.3-10.4-8.3zm0 27v20h9c4 0 6.7-1 8.8-2.8 2.2-1.8 3.3-4 3.3-7.2 0-6.7-4.9-10-13.5-10z"/>
	<path id="path6595" class="s3" d="m162.4 22.4q-1.2 0-2.4 0.4-1.2 0.5-2.1 1.4-0.9 0.9-1.4 2.1-0.5 1.2-0.5 2.5 0 1.2 0.5 2.4 0.5 1.2 1.4 2.1 0.9 0.9 2.1 1.4 1.2 0.5 2.4 0.5 1.3 0 2.5-0.5 1.2-0.5 2.1-1.4 0.9-0.9 1.4-2.1 0.5-1.2 0.5-2.4 0-1.3-0.5-2.5-0.5-1.2-1.4-2.1-0.9-0.9-2.1-1.4-1.2-0.4-2.5-0.4zm5.2 20.2v46.3h-10.4v-46.3z"/>
	<path id="path6597" class="s3" d="m218.9 88.8h-10.4v-26.1c0-8.6-3-12.5-9-12.5-3.2 0-5.4 0.8-7.4 3.2-2.1 2.4-3.3 5.4-3.3 9v26.4h-10.6v-46.3h10.5v6.6c5.3-6.8 8.4-7.7 14.9-7.7 5.2 0 9.3 1.7 11.9 5 2.6 3.2 3.4 7.9 3.4 14.1z"/>
	<path id="path6599" fill-rule="evenodd" class="s3" d="m271.3 83.8q0 24.7-25.3 24.7c-5.9 0-11.1-0.5-15.5-2.5v-10.6c3.3 2.4 8.2 4.9 14.2 4.9 10.8 0 16.1-6.5 16.1-15.8v-2.2c-6.2 7.1-11.9 7.1-15.5 7.1-5.5 0-10.2-2.3-13.6-6.3-3.4-4-4.9-9.5-4.9-16.7 0-7.6 2.3-13.9 6-18.4 3.6-4.5 8.6-6.6 15-6.6 6.1 0 10.6 2.1 13 6v-4.9h10.5zm-10.3-17v-4.9c0-3.1-1-5.9-3.2-8.2-2.1-2.2-4.3-3.5-7.4-3.5-3.9 0-7.3 1.4-9.6 4.3-2.2 2.9-3.2 6.3-3.2 11.3 0 4.4 0.8 8.4 2.9 11.1 2.2 2.6 5 4.1 8.5 4.1 4.7 0 6.8-1.9 9.1-4.4 2.2-2.6 2.9-5.8 2.9-9.8z"/>
</svg>